<svg width="300" height="300" viewBox="0 0 300 300" fill="none" xmlns="http://www.w3.org/2000/svg">
  <path fill-rule="evenodd" clip-rule="evenodd" d="M200.219 48.774C223.848 62.8101 246.743 80.2915 255.573 105.275C265.625 133.661 260.136 164.741 245.326 192.512C231.932 217.453 208.232 234.302 181.13 244.043C156.856 252.758 132.523 254.869 108.766 245.082C83.6029 234.706 62.6597 215.329 50.4489 190.551C37.8869 164.981 29.4276 135.392 40.216 109.097C51.4074 81.844 78.873 65.7939 106.126 54.645C130.724 44.4943 157.455 25.2557 183.469 33.9468C190.094 36.2726 195.379 42.7959 200.219 48.774Z" fill="url(#paint0_linear_104_2)"/>
  <defs>
    <linearGradient id="paint0_linear_104_2" x1="50" y1="50" x2="250" y2="250" gradientUnits="userSpaceOnUse">
      <stop stop-color="#4F46E5"/>
      <stop offset="1" stop-color="#06B6D4"/>
    </linearGradient>
  </defs>
</svg>
